<svg width="1000" height="600" xmlns="http://www.w3.org/2000/svg">
  <rect width="100%" height="100%" fill="#1E293B" />
  
  <!-- 图表网格 -->
  <g stroke="#334155" stroke-width="1" opacity="0.3">
    <line x1="0" y1="100" x2="1000" y2="100" />
    <line x1="0" y1="200" x2="1000" y2="200" />
    <line x1="0" y1="300" x2="1000" y2="300" />
    <line x1="0" y1="400" x2="1000" y2="400" />
    <line x1="0" y1="500" x2="1000" y2="500" />
    
    <line x1="100" y1="0" x2="100" y2="600" />
    <line x1="200" y1="0" x2="200" y2="600" />
    <line x1="300" y1="0" x2="300" y2="600" />
    <line x1="400" y1="0" x2="400" y2="600" />
    <line x1="500" y1="0" x2="500" y2="600" />
    <line x1="600" y1="0" x2="600" y2="600" />
    <line x1="700" y1="0" x2="700" y2="600" />
    <line x1="800" y1="0" x2="800" y2="600" />
    <line x1="900" y1="0" x2="900" y2="600" />
  </g>
  
  <!-- 抽象图形元素 -->
  <g opacity="0.7">
    <!-- 波浪线 -->
    <path d="M0,400 C100,350 200,450 300,400 C400,350 500,450 600,400 C700,350 800,450 900,400 L900,600 L0,600 Z" fill="#3b82f6" opacity="0.1" />
    
    <!-- 抽象图表柱形 -->
    <rect x="100" y="350" width="40" height="150" rx="5" fill="#8b5cf6" opacity="0.3" />
    <rect x="200" y="250" width="40" height="250" rx="5" fill="#8b5cf6" opacity="0.4" />
    <rect x="300" y="200" width="40" height="300" rx="5" fill="#8b5cf6" opacity="0.5" />
    <rect x="400" y="300" width="40" height="200" rx="5" fill="#8b5cf6" opacity="0.4" />
    <rect x="500" y="150" width="40" height="350" rx="5" fill="#8b5cf6" opacity="0.6" />
    <rect x="600" y="200" width="40" height="300" rx="5" fill="#8b5cf6" opacity="0.5" />
    <rect x="700" y="250" width="40" height="250" rx="5" fill="#8b5cf6" opacity="0.4" />
    <rect x="800" y="300" width="40" height="200" rx="5" fill="#8b5cf6" opacity="0.3" />
  </g>
  
  <!-- 装饰元素 -->
  <g>
    <circle cx="150" cy="150" r="50" fill="#4f46e5" opacity="0.1" />
    <circle cx="750" cy="200" r="80" fill="#06b6d4" opacity="0.1" />
    <circle cx="250" cy="450" r="30" fill="#8b5cf6" opacity="0.1" />
    <circle cx="850" cy="350" r="60" fill="#3b82f6" opacity="0.1" />
  </g>
  
  <!-- 抽象连接线 -->
  <g stroke="#64748b" stroke-width="1" opacity="0.2">
    <line x1="150" y1="150" x2="300" y2="200" />
    <line x1="300" y1="200" x2="500" y2="150" />
    <line x1="500" y1="150" x2="750" y2="200" />
    <line x1="750" y1="200" x2="850" y2="350" />
  </g>
</svg> 